<svg width="52" height="57" viewBox="0 0 52 57" fill="none" xmlns="http://www.w3.org/2000/svg">
<path d="M5.19099 51.3174L0.562744 0.156067H51.4229L46.7898 51.309L25.9621 57L5.19099 51.3174Z" fill="#8D8D8D"/>
<path d="M41.8315 47.5857L46.2476 4.88916H23.0642V52.0778L41.8315 47.5857Z" fill="#AAAAAA"/>
<path d="M10.8073 23.6877L11.4435 29.4715H27.3321V23.6877H10.8073ZM10.1735 17.769H27.3321V11.9936H9.52881L10.1735 17.769ZM27.3321 38.6979L27.3007 38.7051L19.3926 36.9676L18.8877 32.3586H11.7604L12.7557 41.4332L27.3007 44.7203L27.3333 44.713L27.3321 38.6979Z" fill="#EEEEEE"/>
<path d="M24.6282 23.6817V29.4655H33.3714L32.5472 36.9616L24.6282 38.7015V44.7143L39.1841 41.4307L39.2913 40.4547L40.9602 25.2397L41.1337 23.6877L42.4158 11.99H24.6282V17.7738H34.6293L33.9835 23.6925L24.6282 23.6817Z" fill="white"/>
</svg>
