<svg width="39" height="58" viewBox="0 0 39 58" fill="none" xmlns="http://www.w3.org/2000/svg">
<path d="M20.7472 18.7594H10.029C8.79697 18.7597 7.577 18.5173 6.43872 18.046C5.30044 17.5747 4.26616 16.8838 3.39496 16.0127C2.52376 15.1416 1.83271 14.1074 1.36129 12.9692C0.889863 11.831 0.647303 10.6111 0.647461 9.37908C0.647461 6.8916 1.63561 4.50599 3.39453 2.74707C5.15345 0.988151 7.53906 0 10.0265 0H20.7448L20.7472 18.7594Z" fill="#9D9D9D"/>
<path d="M19.4068 38.1884H10.0265C8.79476 38.1884 7.57505 37.9458 6.43705 37.4743C5.29905 37.0029 4.26505 36.3119 3.39411 35.4409C2.52316 34.5698 1.83233 33.5358 1.36106 32.3977C0.889783 31.2596 0.647303 30.0399 0.647461 28.8081C0.647461 26.3206 1.63561 23.935 3.39453 22.1761C5.15345 20.4172 7.53906 19.429 10.0265 19.429H19.4056L19.4068 38.1884Z" fill="#8F8F8F"/>
<path d="M10.0265 57.6185C8.79476 57.6185 7.57505 57.3759 6.43705 56.9044C5.29904 56.433 4.26505 55.7421 3.3941 54.871C2.52316 54 1.83233 52.9659 1.36106 51.8278C0.889783 50.6897 0.647303 49.47 0.647461 48.2382C0.647461 45.7507 1.63561 43.3651 3.39453 41.6062C5.15345 39.8473 7.53906 38.8591 10.0265 38.8591H19.4056V48.2382C19.4058 49.47 19.1633 50.6897 18.692 51.8278C18.2208 52.9659 17.5299 54 16.659 54.871C15.788 55.7421 14.754 56.433 13.616 56.9044C12.478 57.3759 11.2583 57.6185 10.0265 57.6185Z" fill="#AAAAAA"/>
<path d="M28.7858 18.7594H19.4067V0H28.7858C31.2733 0 33.6589 0.988151 35.4178 2.74707C37.1768 4.50599 38.1649 6.8916 38.1649 9.37908C38.1651 10.6109 37.9226 11.8306 37.4513 12.9687C36.98 14.1067 36.2892 15.1408 35.4183 16.0119C34.5473 16.8829 33.5133 17.5739 32.3753 18.0453C31.2373 18.5167 30.0176 18.7594 28.7858 18.7594Z" fill="#B5B5B5"/>
<path d="M28.4477 38.1823C33.8145 38.1823 38.1652 34.1659 38.1652 29.2115C38.1652 24.257 33.8145 20.2407 28.4477 20.2407C23.0809 20.2407 18.7302 24.257 18.7302 29.2115C18.7302 34.1659 23.0809 38.1823 28.4477 38.1823Z" fill="#B0AEAE"/>
</svg>
