<svg width="57" height="57" viewBox="0 0 57 57" fill="none" xmlns="http://www.w3.org/2000/svg">
<path d="M55.579 25.9567L30.8457 1.22452C29.4223 -0.200083 27.1121 -0.200083 25.687 1.22452L20.5514 6.36077L27.066 12.8759C28.5804 12.3645 30.3164 12.7074 31.523 13.9144C32.7361 15.1287 33.0766 16.8796 32.5525 18.3991L38.8313 24.678C40.3506 24.1546 42.1032 24.4929 43.3162 25.7081C45.0122 27.4034 45.0122 30.1506 43.3162 31.8465C41.6201 33.5431 38.8729 33.5431 37.1761 31.8465C35.9009 30.5704 35.5855 28.6969 36.2313 27.1257L30.3755 21.2696L30.3749 36.6797C30.7886 36.8842 31.1786 37.1574 31.523 37.5006C33.2186 39.1956 33.2186 41.9425 31.523 43.6403C29.8271 45.3356 27.0787 45.3356 25.3847 43.6403C23.6891 41.9425 23.6891 39.1956 25.3847 37.5006C25.8038 37.0821 26.2885 36.7656 26.8059 36.5534V21.0003C26.2885 20.7888 25.8044 20.4744 25.3847 20.0531C24.1003 18.7697 23.7911 16.8847 24.4496 15.3075L18.0275 8.88403L1.06867 25.8423C-0.356222 27.2681 -0.356222 29.5782 1.06867 31.0028L25.802 55.735C27.2259 57.1596 29.5355 57.1596 30.9613 55.735L55.579 31.1176C57.0035 29.6924 57.0035 27.3813 55.579 25.9567Z" fill="#8D8D8D"/>
</svg>
