<svg width="52" height="57" viewBox="0 0 52 57" fill="none" xmlns="http://www.w3.org/2000/svg">
<g clip-path="url(#clip0_45_273)">
<path d="M51.0251 0.156067H0.165039L4.65231 51.0162L25.5897 57L46.5319 51.0162L51.0251 0.156067Z" fill="#8D8D8D"/>
<path d="M25.5945 4.64331V52.3597L42.3434 47.5724L46.0884 4.64331H25.5945Z" fill="#AAAAAA"/>
<path d="M25.5945 30.0776V24.0914H38.4586L37.4115 41.2946L25.5945 45.183V38.9003L31.7277 36.8061L32.176 30.0752H25.5945V30.0776ZM38.9081 18.11L39.3563 12.1237H25.5945V18.1075L38.9081 18.11Z" fill="white"/>
<path d="M25.5982 38.9003V45.183L13.7776 41.2934L13.1751 33.0659H19.1589L19.4577 36.8013L25.5982 38.9003ZM18.2648 18.1075H25.5982V12.1237H11.9822L13.0293 30.0776H25.5982V24.0914H18.7131L18.2648 18.1075Z" fill="#EEEEEE"/>
</g>
<defs>
<clipPath id="clip0_45_273">
<rect width="50.8601" height="56.8439" fill="white" transform="translate(0.165039 0.156067)"/>
</clipPath>
</defs>
</svg>
