<svg width="55" height="57" viewBox="0 0 55 57" fill="none" xmlns="http://www.w3.org/2000/svg">
<path fill-rule="evenodd" clip-rule="evenodd" d="M0.0251465 0.156067V57H54.5627V0.156067H0.0251465ZM41.0355 46.7494C38.75 46.7494 37.6702 45.1444 36.6771 43.4575L33.0321 45.9782C33.7511 47.5622 34.9062 48.8871 36.3503 49.7843C37.7944 50.6815 39.462 51.1104 41.1407 51.0162C45.5419 51.0162 48.8193 48.6448 48.8193 44.319C48.8193 40.3041 46.5974 38.5171 42.6575 36.7687L41.5014 36.2542C39.5141 35.3614 38.6529 34.7818 38.6529 33.3358C38.6564 33.0446 38.7181 32.7574 38.834 32.4924C38.9499 32.2274 39.1175 31.9905 39.3261 31.7968C39.5347 31.603 39.7797 31.4567 40.0456 31.3672C40.3114 31.2776 40.5923 31.2467 40.8702 31.2765C41.509 31.2642 42.1364 31.4545 42.6691 31.8223C43.2018 32.19 43.6146 32.7179 43.8529 33.3358L47.4656 30.938C46.8504 29.6925 45.8976 28.6631 44.7256 27.9775C43.5536 27.292 42.2141 26.9806 40.8737 27.0821C36.7349 27.0821 34.0876 29.8258 34.0876 33.431C34.0876 37.3435 36.3107 39.1943 39.6529 40.6728L40.8089 41.1873C42.9234 42.1465 43.9639 42.7309 43.9639 44.3781C43.9639 45.7541 42.9558 46.7494 41.0355 46.7494ZM21.4314 45.2827C20.8279 44.8592 20.3493 44.2689 20.0494 43.578L16.291 45.9782C16.957 47.4609 18.0088 48.7191 19.3268 49.6097C20.6448 50.5003 22.176 50.9876 23.7465 51.0162C27.839 51.0162 30.6425 48.7243 30.6425 43.6876V27.0821H25.8586V42.9201C25.8586 45.3505 24.9847 45.9758 23.4667 45.9758C22.7397 45.9462 22.035 45.7062 21.4314 45.2827Z" fill="#8D8D8D"/>
</svg>
